<svg width="16" height="16" viewBox="0 0 16 16" fill="none" xmlns="http://www.w3.org/2000/svg">
<path fill-rule="evenodd" clip-rule="evenodd" d="M15.944 8.33148L15.9468 8.32339C15.9669 8.26413 15.9815 8.20288 15.9903 8.14047C16.0124 7.98267 15.9965 7.82187 15.944 7.67145C15.3758 6.01599 14.3046 4.57941 12.8802 3.56232C11.4558 2.54526 9.74923 1.99854 7.99899 1.99854C6.24874 1.99854 4.5422 2.54526 3.11776 3.56232C1.69332 4.57941 0.622218 6.01599 0.053981 7.67145C0.0231582 7.75967 0.00490874 7.85181 -0.000401323 7.94473L-0.00113374 7.95987C-0.00186617 7.97827 -0.00217134 7.9967 -0.00186617 8.01517C-0.00168306 8.02951 -0.00119478 8.04385 -0.000401323 8.0582C0.00490874 8.15152 0.0232803 8.24359 0.053981 8.33148C0.629359 9.98312 1.70309 11.4155 3.12704 12.4311C4.55099 13.4467 6.25497 13.9953 8.00399 14.0015C9.75125 13.9933 11.453 13.4436 12.875 12.4282C14.297 11.4128 15.3691 9.98151 15.944 8.33148ZM4.27786 10.8056C3.28793 10.0982 2.52224 9.12473 2.06723 8.00146C2.52224 6.8782 3.28793 5.90475 4.27786 5.19733C5.36355 4.42148 6.66458 4.00436 7.99899 4.00436C9.3334 4.00436 10.6344 4.42148 11.7201 5.19733C12.71 5.90475 13.4757 6.8782 13.9308 8.00146C13.4757 9.12473 12.71 10.0982 11.7201 10.8056C10.6344 11.5815 9.3334 11.9986 7.99899 11.9986C6.66458 11.9986 5.36355 11.5815 4.27786 10.8056ZM6.88687 9.6644C7.21579 9.88416 7.60244 10.0015 7.99801 10.0015C8.26065 10.0015 8.52072 9.94974 8.76339 9.84921C9.00601 9.74872 9.22653 9.60138 9.41226 9.41568C9.59793 9.22995 9.74527 9.00949 9.84579 8.76685C9.94625 8.52417 9.99801 8.2641 9.99801 8.00146C9.99801 7.6059 9.8807 7.21921 9.66098 6.89032C9.44119 6.56143 9.12881 6.30508 8.76339 6.15372C8.39791 6.00232 7.99581 5.96274 7.60781 6.03989C7.21987 6.11707 6.86349 6.30756 6.58383 6.58725C6.3041 6.86694 6.11361 7.22333 6.03646 7.6113C5.95925 7.99924 5.99887 8.40137 6.15023 8.76685C6.30166 9.13229 6.55795 9.44464 6.88687 9.6644Z" fill="#9FA1AD"/>
</svg>
