<svg width="20" height="20" viewBox="0 0 20 20" fill="none" xmlns="http://www.w3.org/2000/svg">
<path fill-rule="evenodd" clip-rule="evenodd" d="M12.602 17.8571H10.7143C10.3198 17.8571 10 17.5373 10 17.1428C10 16.7483 10.3198 16.4285 10.7143 16.4285H12.5714C13.3833 16.4285 13.9492 16.428 14.3898 16.392C14.8221 16.3567 15.0704 16.2908 15.2585 16.195C15.6618 15.9895 15.9896 15.6617 16.195 15.2585C16.2909 15.0704 16.3567 14.8221 16.392 14.3898C16.428 13.9492 16.4286 13.3833 16.4286 12.5714V7.42854C16.4286 6.61668 16.428 6.05074 16.392 5.61014C16.3567 5.17787 16.2909 4.92953 16.195 4.74141C15.9896 4.33821 15.6618 4.01039 15.2585 3.80495C15.0704 3.7091 14.8221 3.64327 14.3898 3.60795C13.9492 3.57195 13.3833 3.57139 12.5714 3.57139H10.7143C10.3198 3.57139 10 3.2516 10 2.85711C10 2.46262 10.3198 2.14282 10.7143 2.14282H12.602H12.6021C13.3762 2.14282 14.0005 2.14281 14.5062 2.18412C15.0268 2.22666 15.484 2.31652 15.9071 2.53209C16.5791 2.87449 17.1255 3.42085 17.4679 4.09286C17.6834 4.51592 17.7733 4.9732 17.8158 5.49381C17.8572 5.99943 17.8571 6.62383 17.8571 7.39796V12.602C17.8571 13.3761 17.8572 14.0005 17.8158 14.5061C17.7733 15.0267 17.6834 15.484 17.4679 15.9071C17.1255 16.5791 16.5791 17.1254 15.9071 17.4678C15.484 17.6834 15.0268 17.7733 14.5062 17.8158C14.0005 17.8571 13.3761 17.8571 12.602 17.8571ZM2.14285 9.99997C2.14285 9.60548 2.46265 9.28568 2.85714 9.28568H9.70413L8.06635 7.6479C7.7874 7.36895 7.7874 6.91669 8.06635 6.63775C8.34529 6.3588 8.79755 6.3588 9.0765 6.63775L11.9331 9.49438C11.9349 9.4961 11.9366 9.49783 11.9383 9.49957C12.0045 9.56696 12.0546 9.64422 12.0887 9.72655C12.1233 9.81015 12.1426 9.90175 12.1428 9.99782C12.1429 9.99854 12.1429 9.99925 12.1429 9.99997C12.1429 10.0007 12.1429 10.0014 12.1428 10.0021C12.1423 10.1961 12.0644 10.372 11.9383 10.5004C11.9366 10.5021 11.9349 10.5038 11.9331 10.5056L9.0765 13.3622C8.79755 13.6411 8.34529 13.6411 8.06635 13.3622C7.7874 13.0832 7.7874 12.631 8.06635 12.352L9.70413 10.7143H2.85714C2.46265 10.7143 2.14285 10.3945 2.14285 9.99997Z" fill="#262931"/>
</svg>
