<svg width="523" height="85" viewBox="0 0 523 85" fill="none" xmlns="http://www.w3.org/2000/svg">
<g clip-path="url(#clip0_1_32668)">
<path d="M8.05115 21.4257C8.05115 20.4663 8.82893 19.6885 9.78838 19.6885C10.7478 19.6885 11.5256 20.4663 11.5256 21.4257V92.6521H8.05115V21.4257Z" fill="#0176FF" fill-opacity="0.2"/>
<path d="M13.8419 38.798C13.8419 37.8386 14.6197 37.0608 15.5791 37.0608C16.5386 37.0608 17.3164 37.8386 17.3164 38.798V92.6521H13.8419V38.798Z" fill="#FF0000" fill-opacity="0.04"/>
</g>
<g clip-path="url(#clip1_1_32668)">
<path d="M26.1024 41.1144C26.1024 40.155 26.8802 39.3772 27.8396 39.3772C28.7991 39.3772 29.5769 40.155 29.5769 41.1144V92.6522H26.1024V41.1144Z" fill="#0176FF" fill-opacity="0.2"/>
<path d="M31.8932 38.798C31.8932 37.8386 32.671 37.0608 33.6304 37.0608C34.5899 37.0608 35.3676 37.8386 35.3676 38.798V92.6521H31.8932V38.798Z" fill="#FF0000" fill-opacity="0.04"/>
</g>
<g clip-path="url(#clip2_1_32668)">
<path d="M44.1536 56.1703C44.1536 55.2109 44.9314 54.4331 45.8909 54.4331C46.8503 54.4331 47.6281 55.2109 47.6281 56.1703V92.6521H44.1536V56.1703Z" fill="#0176FF" fill-opacity="0.2"/>
<path d="M49.9444 38.798C49.9444 37.8386 50.7222 37.0608 51.6816 37.0608C52.6411 37.0608 53.4189 37.8386 53.4189 38.798V92.6521H49.9444V38.798Z" fill="#FF0000" fill-opacity="0.04"/>
</g>
<g clip-path="url(#clip3_1_32668)">
<path d="M62.2048 43.4306C62.2048 42.4711 62.9826 41.6934 63.9421 41.6934C64.9015 41.6934 65.6793 42.4711 65.6793 43.4306V92.6521H62.2048V43.4306Z" fill="#0176FF" fill-opacity="0.2"/>
<path d="M67.9956 38.798C67.9956 37.8386 68.7734 37.0608 69.7328 37.0608C70.6923 37.0608 71.4701 37.8386 71.4701 38.798V92.6521H67.9956V38.798Z" fill="#FF0000" fill-opacity="0.04"/>
</g>
<g clip-path="url(#clip4_1_32668)">
<path d="M80.256 78.1752C80.256 77.2158 81.0338 76.438 81.9932 76.438C82.9527 76.438 83.7304 77.2158 83.7304 78.1752V92.6521H80.256V78.1752Z" fill="#0176FF" fill-opacity="0.2"/>
<path d="M86.0468 38.798C86.0468 37.8386 86.8245 37.0608 87.784 37.0608C88.7434 37.0608 89.5212 37.8386 89.5212 38.798V92.6521H86.0468V38.798Z" fill="#FF0000" fill-opacity="0.04"/>
</g>
<g clip-path="url(#clip5_1_32668)">
<path d="M98.3072 30.6911C98.3072 29.7316 99.085 28.9539 100.044 28.9539C101.004 28.9539 101.782 29.7316 101.782 30.6911V92.6522H98.3072V30.6911Z" fill="#0176FF" fill-opacity="0.2"/>
<path d="M104.098 38.7983C104.098 37.8388 104.876 37.061 105.835 37.061C106.795 37.061 107.572 37.8388 107.572 38.7983V92.6523H104.098V38.7983Z" fill="#FF0000" fill-opacity="0.04"/>
</g>
<g clip-path="url(#clip6_1_32668)">
<path d="M116.358 49.2214C116.358 48.2619 117.136 47.4841 118.096 47.4841C119.055 47.4841 119.833 48.2619 119.833 49.2214V92.6521H116.358V49.2214Z" fill="#0176FF" fill-opacity="0.2"/>
<path d="M122.149 38.798C122.149 37.8386 122.927 37.0608 123.886 37.0608C124.846 37.0608 125.624 37.8386 125.624 38.798V92.6521H122.149V38.798Z" fill="#FF0000" fill-opacity="0.04"/>
</g>
<g clip-path="url(#clip7_1_32668)">
<path d="M134.41 24.9003C134.41 23.9409 135.187 23.1631 136.147 23.1631C137.106 23.1631 137.884 23.9409 137.884 24.9003V92.6522H134.41V24.9003Z" fill="#0176FF" fill-opacity="0.2"/>
<path d="M140.2 38.7983C140.2 37.8388 140.978 37.061 141.938 37.061C142.897 37.061 143.675 37.8388 143.675 38.7983V92.6523H140.2V38.7983Z" fill="#FF0000" fill-opacity="0.04"/>
</g>
<g clip-path="url(#clip8_1_32668)">
<path d="M152.461 70.0683C152.461 69.1088 153.239 68.3311 154.198 68.3311C155.157 68.3311 155.935 69.1088 155.935 70.0683V92.6523H152.461V70.0683Z" fill="#0176FF" fill-opacity="0.2"/>
<path d="M158.252 38.7983C158.252 37.8388 159.029 37.061 159.989 37.061C160.948 37.061 161.726 37.8388 161.726 38.7983V92.6523H158.252V38.7983Z" fill="#FF0000" fill-opacity="0.04"/>
</g>
<g clip-path="url(#clip9_1_32668)">
<path d="M170.512 35.3237C170.512 34.3642 171.29 33.5864 172.249 33.5864C173.209 33.5864 173.986 34.3642 173.986 35.3237V92.6522H170.512V35.3237Z" fill="#0176FF" fill-opacity="0.2"/>
<path d="M176.303 38.798C176.303 37.8386 177.081 37.0608 178.04 37.0608C178.999 37.0608 179.777 37.8386 179.777 38.798V92.6521H176.303V38.798Z" fill="#FF0000" fill-opacity="0.04"/>
</g>
<g clip-path="url(#clip10_1_32668)">
<path d="M188.563 41.1144C188.563 40.155 189.341 39.3772 190.3 39.3772C191.26 39.3772 192.038 40.155 192.038 41.1144V92.6522H188.563V41.1144Z" fill="#0176FF" fill-opacity="0.2"/>
<path d="M194.354 38.798C194.354 37.8386 195.132 37.0608 196.091 37.0608C197.051 37.0608 197.828 37.8386 197.828 38.798V92.6521H194.354V38.798Z" fill="#FF0000" fill-opacity="0.04"/>
</g>
<g clip-path="url(#clip11_1_32668)">
<path d="M206.614 8.6862C206.614 7.72675 207.392 6.94897 208.352 6.94897C209.311 6.94897 210.089 7.72676 210.089 8.6862V92.6522H206.614V8.6862Z" fill="#0176FF" fill-opacity="0.2"/>
<path d="M212.405 38.7983C212.405 37.8388 213.183 37.061 214.142 37.061C215.102 37.061 215.88 37.8388 215.88 38.7983V92.6523H212.405V38.7983Z" fill="#FF0000" fill-opacity="0.04"/>
</g>
<g clip-path="url(#clip12_1_32668)">
<path d="M224.666 56.1703C224.666 55.2109 225.443 54.4331 226.403 54.4331C227.362 54.4331 228.14 55.2109 228.14 56.1703V92.6521H224.666V56.1703Z" fill="#0176FF" fill-opacity="0.2"/>
<path d="M230.456 38.798C230.456 37.8386 231.234 37.0608 232.194 37.0608C233.153 37.0608 233.931 37.8386 233.931 38.798V92.6521H230.456V38.798Z" fill="#FF0000" fill-opacity="0.04"/>
</g>
<g clip-path="url(#clip13_1_32668)">
<path d="M242.717 33.0072C242.717 32.0478 243.495 31.27 244.454 31.27C245.413 31.27 246.191 32.0478 246.191 33.0072V92.6521H242.717V33.0072Z" fill="#0176FF" fill-opacity="0.2"/>
<path d="M248.508 38.798C248.508 37.8386 249.285 37.0608 250.245 37.0608C251.204 37.0608 251.982 37.8386 251.982 38.798V92.6521H248.508V38.798Z" fill="#FF0000" fill-opacity="0.04"/>
</g>
<g clip-path="url(#clip14_1_32668)">
<path d="M260.768 78.1752C260.768 77.2158 261.546 76.438 262.505 76.438C263.465 76.438 264.242 77.2158 264.242 78.1752V92.6521H260.768V78.1752Z" fill="#0176FF" fill-opacity="0.2"/>
<path d="M266.559 38.798C266.559 37.8386 267.336 37.0608 268.296 37.0608C269.255 37.0608 270.033 37.8386 270.033 38.798V92.6521H266.559V38.798Z" fill="#FF0000" fill-opacity="0.04"/>
</g>
<g clip-path="url(#clip15_1_32668)">
<path d="M278.819 53.8542C278.819 52.8947 279.597 52.1169 280.556 52.1169C281.516 52.1169 282.294 52.8947 282.294 53.8542V92.6523H278.819V53.8542Z" fill="#0176FF" fill-opacity="0.2"/>
<path d="M284.61 38.7983C284.61 37.8388 285.388 37.061 286.347 37.061C287.307 37.061 288.084 37.8388 288.084 38.7983V92.6523H284.61V38.7983Z" fill="#FF0000" fill-opacity="0.04"/>
</g>
<g clip-path="url(#clip16_1_32668)">
<path d="M296.87 19.1095C296.87 18.1501 297.648 17.3723 298.608 17.3723C299.567 17.3723 300.345 18.1501 300.345 19.1095V92.6522H296.87V19.1095Z" fill="#0176FF" fill-opacity="0.2"/>
<path d="M302.661 38.798C302.661 37.8386 303.439 37.0608 304.398 37.0608C305.358 37.0608 306.136 37.8386 306.136 38.798V92.6521H302.661V38.798Z" fill="#FF0000" fill-opacity="0.04"/>
</g>
<g clip-path="url(#clip17_1_32668)">
<path d="M314.922 70.0683C314.922 69.1088 315.699 68.3311 316.659 68.3311C317.618 68.3311 318.396 69.1088 318.396 70.0683V92.6523H314.922V70.0683Z" fill="#0176FF" fill-opacity="0.2"/>
<path d="M320.712 38.7983C320.712 37.8388 321.49 37.061 322.45 37.061C323.409 37.061 324.187 37.8388 324.187 38.7983V92.6523H320.712V38.7983Z" fill="#FF0000" fill-opacity="0.04"/>
</g>
<g clip-path="url(#clip18_1_32668)">
<path d="M332.973 43.4306C332.973 42.4711 333.751 41.6934 334.71 41.6934C335.669 41.6934 336.447 42.4711 336.447 43.4306V92.6521H332.973V43.4306Z" fill="#0176FF" fill-opacity="0.2"/>
<path d="M338.764 38.798C338.764 37.8386 339.541 37.0608 340.501 37.0608C341.46 37.0608 342.238 37.8386 342.238 38.798V92.6521H338.764V38.798Z" fill="#FF0000" fill-opacity="0.04"/>
</g>
<g clip-path="url(#clip19_1_32668)">
<path d="M351.024 29.5329C351.024 28.5734 351.802 27.7957 352.761 27.7957C353.721 27.7957 354.499 28.5734 354.499 29.5329V92.6522H351.024V29.5329Z" fill="#0176FF" fill-opacity="0.2"/>
<path d="M356.815 38.798C356.815 37.8386 357.593 37.0608 358.552 37.0608C359.511 37.0608 360.289 37.8386 360.289 38.798V92.6521H356.815V38.798Z" fill="#FF0000" fill-opacity="0.04"/>
</g>
<g clip-path="url(#clip20_1_32668)">
<path d="M369.075 60.8029C369.075 59.8435 369.853 59.0657 370.812 59.0657C371.772 59.0657 372.55 59.8435 372.55 60.8029V92.6521H369.075V60.8029Z" fill="#0176FF" fill-opacity="0.2"/>
<path d="M374.866 38.798C374.866 37.8386 375.644 37.0608 376.603 37.0608C377.563 37.0608 378.34 37.8386 378.34 38.798V92.6521H374.866V38.798Z" fill="#FF0000" fill-opacity="0.04"/>
</g>
<g clip-path="url(#clip21_1_32668)">
<path d="M387.126 35.3237C387.126 34.3642 387.904 33.5864 388.864 33.5864C389.823 33.5864 390.601 34.3642 390.601 35.3237V92.6522H387.126V35.3237Z" fill="#0176FF" fill-opacity="0.2"/>
<path d="M392.917 38.798C392.917 37.8386 393.695 37.0608 394.654 37.0608C395.614 37.0608 396.392 37.8386 396.392 38.798V92.6521H392.917V38.798Z" fill="#FF0000" fill-opacity="0.04"/>
</g>
<g clip-path="url(#clip22_1_32668)">
<path d="M405.178 67.7519C405.178 66.7924 405.955 66.0146 406.915 66.0146C407.874 66.0146 408.652 66.7924 408.652 67.7519V92.6521H405.178V67.7519Z" fill="#0176FF" fill-opacity="0.2"/>
<path d="M410.968 38.798C410.968 37.8386 411.746 37.0608 412.706 37.0608C413.665 37.0608 414.443 37.8386 414.443 38.798V92.6521H410.968V38.798Z" fill="#FF0000" fill-opacity="0.04"/>
</g>
<g clip-path="url(#clip23_1_32668)">
<path d="M423.229 1.73723C423.229 0.777785 424.007 0 424.966 0C425.926 0 426.703 0.777784 426.703 1.73723V92.6522H423.229V1.73723Z" fill="#0176FF" fill-opacity="0.2"/>
<path d="M429.02 38.798C429.02 37.8386 429.797 37.0608 430.757 37.0608C431.716 37.0608 432.494 37.8386 432.494 38.798V92.6521H429.02V38.798Z" fill="#FF0000" fill-opacity="0.04"/>
</g>
<g clip-path="url(#clip24_1_32668)">
<path d="M441.28 53.8542C441.28 52.8947 442.058 52.1169 443.017 52.1169C443.977 52.1169 444.754 52.8947 444.754 53.8542V92.6523H441.28V53.8542Z" fill="#0176FF" fill-opacity="0.2"/>
<path d="M447.071 38.7983C447.071 37.8388 447.849 37.061 448.808 37.061C449.767 37.061 450.545 37.8388 450.545 38.7983V92.6523H447.071V38.7983Z" fill="#FF0000" fill-opacity="0.04"/>
</g>
<g clip-path="url(#clip25_1_32668)">
<path d="M459.331 19.1095C459.331 18.1501 460.109 17.3723 461.069 17.3723C462.028 17.3723 462.806 18.1501 462.806 19.1095V92.6522H459.331V19.1095Z" fill="#0176FF" fill-opacity="0.2"/>
<path d="M465.122 38.798C465.122 37.8386 465.9 37.0608 466.859 37.0608C467.819 37.0608 468.597 37.8386 468.597 38.798V92.6521H465.122V38.798Z" fill="#FF0000" fill-opacity="0.04"/>
</g>
<g clip-path="url(#clip26_1_32668)">
<path d="M477.382 72.3844C477.382 71.425 478.16 70.6472 479.12 70.6472C480.079 70.6472 480.857 71.425 480.857 72.3844V92.6521H477.382V72.3844Z" fill="#0176FF" fill-opacity="0.2"/>
<path d="M483.173 38.798C483.173 37.8386 483.951 37.0608 484.91 37.0608C485.87 37.0608 486.648 37.8386 486.648 38.798V92.6521H483.173V38.798Z" fill="#FF0000" fill-opacity="0.04"/>
</g>
<g clip-path="url(#clip27_1_32668)">
<path d="M495.434 29.5329C495.434 28.5734 496.211 27.7957 497.171 27.7957C498.13 27.7957 498.908 28.5734 498.908 29.5329V92.6522H495.434V29.5329Z" fill="#0176FF" fill-opacity="0.2"/>
<path d="M501.224 38.798C501.224 37.8386 502.002 37.0608 502.962 37.0608C503.921 37.0608 504.699 37.8386 504.699 38.798V92.6521H501.224V38.798Z" fill="#FF0000" fill-opacity="0.04"/>
</g>
<g clip-path="url(#clip28_1_32668)">
<path d="M513.485 51.5378C513.485 50.5783 514.263 49.8005 515.222 49.8005C516.182 49.8005 516.959 50.5783 516.959 51.5378V92.6522H513.485V51.5378Z" fill="#0176FF" fill-opacity="0.2"/>
<path d="M519.276 38.798C519.276 37.8386 520.053 37.0608 521.013 37.0608C521.972 37.0608 522.75 37.8386 522.75 38.798V92.6521H519.276V38.798Z" fill="#FF0000" fill-opacity="0.04"/>
</g>
<defs>
<clipPath id="clip0_1_32668">
<path d="M8.05115 22.0048C8.05115 20.7255 9.08819 19.6885 10.3675 19.6885H15.0001C16.2793 19.6885 17.3164 20.7255 17.3164 22.0048V92.6521H8.05115V22.0048Z" fill="white"/>
</clipPath>
<clipPath id="clip1_1_32668">
<path d="M26.1024 41.6935C26.1024 40.4142 27.1395 39.3772 28.4187 39.3772H33.0513C34.3306 39.3772 35.3676 40.4142 35.3676 41.6935V92.6522H26.1024V41.6935Z" fill="white"/>
</clipPath>
<clipPath id="clip2_1_32668">
<path d="M44.1536 56.7494C44.1536 55.4702 45.1907 54.4331 46.4699 54.4331H51.1025C52.3818 54.4331 53.4188 55.4702 53.4188 56.7494V92.6521H44.1536V56.7494Z" fill="white"/>
</clipPath>
<clipPath id="clip3_1_32668">
<path d="M62.2048 44.0097C62.2048 42.7304 63.2419 41.6934 64.5211 41.6934H69.1537C70.433 41.6934 71.4701 42.7304 71.4701 44.0097V92.6521H62.2048V44.0097Z" fill="white"/>
</clipPath>
<clipPath id="clip4_1_32668">
<path d="M80.256 78.7543C80.256 77.475 81.293 76.438 82.5723 76.438H87.2049C88.4842 76.438 89.5212 77.475 89.5212 78.7543V92.6521H80.256V78.7543Z" fill="white"/>
</clipPath>
<clipPath id="clip5_1_32668">
<path d="M98.3072 31.2702C98.3072 29.9909 99.3442 28.9539 100.623 28.9539H105.256C106.535 28.9539 107.572 29.9909 107.572 31.2702V92.6522H98.3072V31.2702Z" fill="white"/>
</clipPath>
<clipPath id="clip6_1_32668">
<path d="M116.358 49.8004C116.358 48.5212 117.395 47.4841 118.675 47.4841H123.307C124.587 47.4841 125.624 48.5212 125.624 49.8004V92.6521H116.358V49.8004Z" fill="white"/>
</clipPath>
<clipPath id="clip7_1_32668">
<path d="M134.41 25.4794C134.41 24.2001 135.447 23.1631 136.726 23.1631H141.359C142.638 23.1631 143.675 24.2001 143.675 25.4794V92.6522H134.41V25.4794Z" fill="white"/>
</clipPath>
<clipPath id="clip8_1_32668">
<path d="M152.461 70.6474C152.461 69.3681 153.498 68.3311 154.777 68.3311H159.41C160.689 68.3311 161.726 69.3681 161.726 70.6474V92.6523H152.461V70.6474Z" fill="white"/>
</clipPath>
<clipPath id="clip9_1_32668">
<path d="M170.512 35.9027C170.512 34.6235 171.549 33.5864 172.828 33.5864H177.461C178.74 33.5864 179.777 34.6235 179.777 35.9027V92.6522H170.512V35.9027Z" fill="white"/>
</clipPath>
<clipPath id="clip10_1_32668">
<path d="M188.563 41.6935C188.563 40.4142 189.6 39.3772 190.879 39.3772H195.512C196.791 39.3772 197.828 40.4142 197.828 41.6935V92.6522H188.563V41.6935Z" fill="white"/>
</clipPath>
<clipPath id="clip11_1_32668">
<path d="M206.614 9.26528C206.614 7.98602 207.651 6.94897 208.931 6.94897H213.563C214.843 6.94897 215.88 7.98602 215.88 9.26528V92.6522H206.614V9.26528Z" fill="white"/>
</clipPath>
<clipPath id="clip12_1_32668">
<path d="M224.666 56.7494C224.666 55.4702 225.703 54.4331 226.982 54.4331H231.615C232.894 54.4331 233.931 55.4702 233.931 56.7494V92.6521H224.666V56.7494Z" fill="white"/>
</clipPath>
<clipPath id="clip13_1_32668">
<path d="M242.717 33.5863C242.717 32.3071 243.754 31.27 245.033 31.27H249.666C250.945 31.27 251.982 32.3071 251.982 33.5863V92.6521H242.717V33.5863Z" fill="white"/>
</clipPath>
<clipPath id="clip14_1_32668">
<path d="M260.768 78.7543C260.768 77.475 261.805 76.438 263.084 76.438H267.717C268.996 76.438 270.033 77.475 270.033 78.7543V92.6521H260.768V78.7543Z" fill="white"/>
</clipPath>
<clipPath id="clip15_1_32668">
<path d="M278.819 54.4333C278.819 53.154 279.856 52.1169 281.136 52.1169H285.768C287.047 52.1169 288.084 53.154 288.084 54.4332V92.6523H278.819V54.4333Z" fill="white"/>
</clipPath>
<clipPath id="clip16_1_32668">
<path d="M296.87 19.6886C296.87 18.4094 297.907 17.3723 299.187 17.3723H303.819C305.099 17.3723 306.136 18.4094 306.136 19.6886V92.6522H296.87V19.6886Z" fill="white"/>
</clipPath>
<clipPath id="clip17_1_32668">
<path d="M314.922 70.6474C314.922 69.3681 315.959 68.3311 317.238 68.3311H321.871C323.15 68.3311 324.187 69.3681 324.187 70.6474V92.6523H314.922V70.6474Z" fill="white"/>
</clipPath>
<clipPath id="clip18_1_32668">
<path d="M332.973 44.0097C332.973 42.7304 334.01 41.6934 335.289 41.6934H339.922C341.201 41.6934 342.238 42.7304 342.238 44.0097V92.6521H332.973V44.0097Z" fill="white"/>
</clipPath>
<clipPath id="clip19_1_32668">
<path d="M351.024 30.112C351.024 28.8327 352.061 27.7957 353.34 27.7957H357.973C359.252 27.7957 360.289 28.8327 360.289 30.112V92.6522H351.024V30.112Z" fill="white"/>
</clipPath>
<clipPath id="clip20_1_32668">
<path d="M369.075 61.382C369.075 60.1027 370.112 59.0657 371.391 59.0657H376.024C377.303 59.0657 378.34 60.1027 378.34 61.382V92.6521H369.075V61.382Z" fill="white"/>
</clipPath>
<clipPath id="clip21_1_32668">
<path d="M387.126 35.9027C387.126 34.6235 388.164 33.5864 389.443 33.5864H394.075C395.355 33.5864 396.392 34.6235 396.392 35.9027V92.6522H387.126V35.9027Z" fill="white"/>
</clipPath>
<clipPath id="clip22_1_32668">
<path d="M405.178 68.331C405.178 67.0517 406.215 66.0146 407.494 66.0146H412.127C413.406 66.0146 414.443 67.0517 414.443 68.331V92.6521H405.178V68.331Z" fill="white"/>
</clipPath>
<clipPath id="clip23_1_32668">
<path d="M423.229 2.31631C423.229 1.03705 424.266 0 425.545 0H430.178C431.457 0 432.494 1.03704 432.494 2.3163V92.6522H423.229V2.31631Z" fill="white"/>
</clipPath>
<clipPath id="clip24_1_32668">
<path d="M441.28 54.4333C441.28 53.154 442.317 52.1169 443.596 52.1169H448.229C449.508 52.1169 450.545 53.154 450.545 54.4332V92.6523H441.28V54.4333Z" fill="white"/>
</clipPath>
<clipPath id="clip25_1_32668">
<path d="M459.331 19.6886C459.331 18.4094 460.368 17.3723 461.648 17.3723H466.28C467.559 17.3723 468.597 18.4094 468.597 19.6886V92.6522H459.331V19.6886Z" fill="white"/>
</clipPath>
<clipPath id="clip26_1_32668">
<path d="M477.382 72.9635C477.382 71.6843 478.419 70.6472 479.699 70.6472H484.331C485.611 70.6472 486.648 71.6843 486.648 72.9635V92.6521H477.382V72.9635Z" fill="white"/>
</clipPath>
<clipPath id="clip27_1_32668">
<path d="M495.434 30.112C495.434 28.8327 496.471 27.7957 497.75 27.7957H502.383C503.662 27.7957 504.699 28.8327 504.699 30.112V92.6522H495.434V30.112Z" fill="white"/>
</clipPath>
<clipPath id="clip28_1_32668">
<path d="M513.485 52.1168C513.485 50.8376 514.522 49.8005 515.801 49.8005H520.434C521.713 49.8005 522.75 50.8376 522.75 52.1168V92.6522H513.485V52.1168Z" fill="white"/>
</clipPath>
</defs>
</svg>
