<svg width="954" height="1018" viewBox="0 0 954 1018" fill="none" xmlns="http://www.w3.org/2000/svg">
<path d="M255.291 169.095L177.156 460.361M255.291 169.095C264.475 134.674 291.431 107.721 325.855 98.5368M255.291 169.095L325.809 98.3659M177.156 460.361C167.972 494.782 177.76 531.523 202.93 556.69M177.156 460.361L202.93 556.69M325.855 98.5368L325.809 98.3659M325.855 98.5368L617.146 20.4091M325.809 98.3659L617.146 20.4091M617.146 20.4091C651.569 11.0849 688.243 20.9424 713.484 46.1806L926.569 259.247M617.146 20.4091L926.569 259.247M926.569 259.247C951.74 284.414 961.528 321.155 952.343 355.577M926.569 259.247L952.343 355.577M952.343 355.577L874.206 646.842M874.206 646.842C865.022 681.265 838.071 708.214 803.644 717.397M874.206 646.842L803.644 717.397M803.644 717.397L512.353 795.527M512.353 795.527C477.928 804.711 441.184 794.924 416.015 769.756M512.353 795.527L416.015 769.756M416.015 769.756L202.93 556.69" stroke="#0176FF" stroke-opacity="0.11" stroke-width="2"/>
<path d="M68.3833 538.248L68.3832 538.249L181.444 772.641M68.3833 538.248L181.444 772.641M68.3833 538.248C54.9896 510.577 57.4177 477.772 74.7401 452.374M68.3833 538.248L74.6142 452.288M181.444 772.641C194.838 800.31 221.938 818.811 252.568 821.076M181.444 772.641L252.568 821.076M74.7401 452.374L74.6142 452.288M74.7401 452.374L221.083 237.187L221.083 237.186M74.6142 452.288L221.083 237.186M221.083 237.186C238.326 211.696 267.848 197.476 298.564 199.75L557.882 218.948M221.083 237.186L557.882 218.948M557.882 218.948C588.513 221.215 615.613 239.713 629.009 267.386M557.882 218.948L629.009 267.386M629.009 267.386L742.068 501.776M742.068 501.776C755.462 529.449 753.033 562.252 735.709 587.65M742.068 501.776L735.709 587.65M735.709 587.65L589.366 802.838M589.366 802.838C572.043 828.235 542.516 842.542 511.884 840.277M589.366 802.838L511.884 840.277M511.884 840.277L252.568 821.076" stroke="#0176FF" stroke-opacity="0.1" stroke-width="2"/>
<path d="M890.541 119.243L551.64 87.4282L551.654 87.2757L551.639 87.4277C511.591 83.6144 472.461 101.547 449.205 134.373L449.08 134.285L449.205 134.373L252.054 411.856C228.797 444.682 224.71 487.422 241.455 523.96L383.157 833.157C399.902 869.691 434.945 894.5 474.993 898.313L813.893 930.126C853.941 933.945 893.072 916.008 916.327 883.184L1113.48 605.702C1136.74 572.877 1140.82 530.137 1124.07 493.598L982.374 184.402C965.585 147.762 930.64 122.908 890.541 119.243ZM890.541 119.243L890.553 119.091" stroke="white" stroke-width="4"/>
</svg>
