<svg width="739" height="388" viewBox="0 0 739 388" fill="none" xmlns="http://www.w3.org/2000/svg">
<g opacity="0.5">
<path d="M187.865 50.301L130.367 264.408M187.865 50.301C194.623 24.9982 214.46 5.18477 239.792 -1.56619M187.865 50.301L239.758 -1.69183M130.367 264.408C123.608 289.712 130.811 316.719 149.333 335.22M130.367 264.408L149.333 335.22M239.792 -1.56619L239.758 -1.69183M239.792 -1.56619L454.149 -58.9974M239.758 -1.69183L454.149 -58.9974M454.149 -58.9974C479.48 -65.8516 506.468 -58.6054 525.042 -40.053L681.849 116.571M454.149 -58.9974L681.849 116.571M681.849 116.571C700.372 135.071 707.574 162.079 700.815 187.383M681.849 116.571L700.815 187.383M700.815 187.383L643.316 401.49M643.316 401.49C636.557 426.794 616.724 446.604 591.39 453.355M643.316 401.49L591.39 453.355M591.39 453.355L377.033 510.787M377.033 510.787C351.701 517.538 324.661 510.344 306.139 491.843M377.033 510.787L306.139 491.843M306.139 491.843L149.333 335.22" stroke="white" stroke-width="2"/>
<path d="M50.3223 321.663L50.3222 321.664L133.522 493.964M50.3223 321.663L133.522 493.964M50.3223 321.663C40.466 301.322 42.2528 277.207 55.0002 258.537M50.3223 321.663L54.9075 258.474M133.522 493.964C143.379 514.303 163.321 527.903 185.861 529.568M133.522 493.964L185.861 529.568M55.0002 258.537L54.9075 258.474M55.0002 258.537L162.692 100.355L162.692 100.354M54.9075 258.474L162.692 100.354M162.692 100.354C175.381 81.6168 197.106 71.1636 219.709 72.8353L410.537 86.947M162.692 100.354L410.537 86.947M410.537 86.947C433.078 88.6138 453.02 102.211 462.878 122.554M410.537 86.947L462.878 122.554M462.878 122.554L546.077 294.853M546.077 294.853C555.934 315.195 554.146 339.308 541.398 357.978M546.077 294.853L541.398 357.978M541.398 357.978L433.706 516.161M433.706 516.161C420.958 534.831 399.23 545.348 376.688 543.682M433.706 516.161L376.688 543.682M376.688 543.682L185.861 529.568" stroke="white" stroke-width="2"/>
<path d="M655.336 13.6548L405.944 -9.73201L405.954 -9.84417L405.943 -9.73238C376.473 -12.5356 347.677 0.646503 330.563 24.7765L330.471 24.7118L330.563 24.777L185.483 228.753C168.369 252.883 165.361 284.301 177.684 311.16L281.96 538.449C294.282 565.304 320.07 583.542 349.54 586.345L598.932 609.73C628.403 612.537 657.198 599.352 674.312 575.223L819.391 371.248C836.509 347.118 839.513 315.701 827.19 288.841L722.915 61.5527C710.56 34.6187 684.845 16.349 655.336 13.6548ZM655.336 13.6548L655.345 13.543" stroke="white" stroke-width="2"/>
</g>
</svg>
