<svg width="18" height="16" viewBox="0 0 18 16" fill="none" xmlns="http://www.w3.org/2000/svg">
<path fill-rule="evenodd" clip-rule="evenodd" d="M0.428574 7.71432C0.428574 5.3141 0.428574 4.11398 0.895688 3.19722C1.30657 2.39081 1.96221 1.73518 2.76861 1.32429C3.68538 0.857178 4.88549 0.857178 7.28572 0.857178H10.7143C13.1145 0.857178 14.3146 0.857178 15.2314 1.32429C16.0378 1.73518 16.6934 2.39081 17.1043 3.19722C17.5714 4.11398 17.5714 5.3141 17.5714 7.71432V8.28575C17.5714 10.686 17.5714 11.8861 17.1043 12.8029C16.6934 13.6093 16.0378 14.2649 15.2314 14.6758C14.3146 15.1429 13.1145 15.1429 10.7143 15.1429H7.28572C4.88549 15.1429 3.68538 15.1429 2.76861 14.6758C1.96221 14.2649 1.30657 13.6093 0.895688 12.8029C0.428574 11.8861 0.428574 10.686 0.428574 8.28575V7.71432ZM7.28572 2.28575H10.7143C11.938 2.28575 12.7698 2.28686 13.4128 2.33939C14.0391 2.39057 14.3594 2.48332 14.5828 2.59716C14.6351 2.6238 14.6865 2.65199 14.7368 2.68166L10.9193 6.49916C10.4867 6.9318 10.1922 7.22551 9.94625 7.43427C9.70673 7.63761 9.5607 7.71806 9.44145 7.7568C9.15454 7.85003 8.84547 7.85003 8.55855 7.7568C8.43931 7.71806 8.29327 7.63761 8.05375 7.43427C7.80784 7.22551 7.51335 6.9318 7.08071 6.49916L3.26321 2.68166C3.31354 2.65199 3.36488 2.6238 3.41717 2.59716C3.6406 2.48332 3.96089 2.39057 4.5872 2.33939C5.23018 2.28686 6.06203 2.28575 7.28572 2.28575ZM2.25306 3.69182C2.22339 3.74215 2.1952 3.79349 2.16855 3.84578C2.05471 4.0692 1.96196 4.3895 1.91079 5.0158C1.85826 5.65879 1.85714 6.49064 1.85714 7.71432V8.28575C1.85714 9.50943 1.85826 10.3413 1.91079 10.9843C1.96196 11.6106 2.05471 11.9309 2.16855 12.1543C2.44248 12.6919 2.87957 13.129 3.41717 13.4029C3.6406 13.5168 3.96089 13.6095 4.5872 13.6607C5.23018 13.7132 6.06203 13.7143 7.28572 13.7143H10.7143C11.938 13.7143 12.7698 13.7132 13.4128 13.6607C14.0391 13.6095 14.3594 13.5168 14.5828 13.4029C15.1204 13.129 15.5575 12.6919 15.8314 12.1543C15.9453 11.9309 16.038 11.6106 16.0892 10.9843C16.1417 10.3413 16.1429 9.50943 16.1429 8.28575V7.71432C16.1429 6.49064 16.1417 5.65879 16.0892 5.0158C16.038 4.3895 15.9453 4.0692 15.8314 3.84578C15.8048 3.79349 15.7766 3.74215 15.7469 3.69182L11.9086 7.53017C11.502 7.93673 11.1665 8.27232 10.8708 8.52332C10.5637 8.78403 10.2529 8.99522 9.88291 9.11545C9.30907 9.3019 8.69093 9.3019 8.1171 9.11545C7.74706 8.99522 7.43631 8.78403 7.12921 8.52332C6.83353 8.27231 6.49798 7.93675 6.09142 7.53017L2.25306 3.69182Z" fill="#262931"/>
</svg>
