<svg width="20" height="20" viewBox="0 0 20 20" fill="none" xmlns="http://www.w3.org/2000/svg">
<path d="M9.28572 14.2856C8.89123 14.2856 8.57143 14.6054 8.57143 14.9999C8.57143 15.3944 8.89123 15.7142 9.28572 15.7142H10.7143C11.1088 15.7142 11.4286 15.3944 11.4286 14.9999C11.4286 14.6054 11.1088 14.2856 10.7143 14.2856H9.28572Z" fill="#262931"/>
<path fill-rule="evenodd" clip-rule="evenodd" d="M4.28572 5.99989C4.28572 4.39975 4.28572 3.59967 4.59713 2.98849C4.87105 2.45089 5.30814 2.0138 5.84575 1.73988C6.45692 1.42847 7.257 1.42847 8.85715 1.42847H11.1429C12.743 1.42847 13.5431 1.42847 14.1543 1.73988C14.6919 2.0138 15.129 2.45089 15.4029 2.98849C15.7143 3.59967 15.7143 4.39975 15.7143 5.9999V13.9999C15.7143 15.6 15.7143 16.4001 15.4029 17.0113C15.129 17.5489 14.6919 17.986 14.1543 18.2599C13.5431 18.5713 12.743 18.5713 11.1429 18.5713H8.85715C7.257 18.5713 6.45692 18.5713 5.84575 18.2599C5.30814 17.986 4.87105 17.5489 4.59713 17.0113C4.28572 16.4001 4.28572 15.6 4.28572 13.9999V5.99989ZM8.85715 2.85704H11.1429C11.9665 2.85704 12.4983 2.85815 12.9031 2.89122C13.2912 2.92293 13.4351 2.97675 13.5057 3.01274C13.7745 3.14971 13.9931 3.36825 14.13 3.63705C14.166 3.70769 14.2198 3.85157 14.2515 4.23966C14.2846 4.64443 14.2857 5.17625 14.2857 5.9999V13.9999C14.2857 14.8235 14.2846 15.3554 14.2515 15.7601C14.2198 16.1482 14.166 16.2921 14.13 16.3627C13.9931 16.6315 13.7745 16.8501 13.5057 16.987C13.4351 17.023 13.2912 17.0769 12.9031 17.1086C12.4983 17.1416 11.9665 17.1428 11.1429 17.1428H8.85715C8.0335 17.1428 7.50168 17.1416 7.09691 17.1086C6.70882 17.0769 6.56494 17.023 6.49431 16.987C6.2255 16.8501 6.00696 16.6315 5.87 16.3627C5.83401 16.2921 5.78018 16.1482 5.74847 15.7601C5.7154 15.3554 5.71429 14.8235 5.71429 13.9999V5.99989C5.71429 5.17625 5.7154 4.64443 5.74847 4.23966C5.78018 3.85157 5.83401 3.70769 5.87 3.63705C6.00696 3.36825 6.2255 3.14971 6.49431 3.01274C6.56494 2.97675 6.70882 2.92293 7.09691 2.89122C7.50168 2.85815 8.0335 2.85704 8.85715 2.85704Z" fill="#262931"/>
</svg>
